# xmcd CD database file
#
# Track frame offsets:
#	150
#	9662
#	25100
#	41667
#	54087
#	68475
#	83907
#	100562
#	112765
#	124760
#	137700
#	152155
#	165945
#	179095
#
# Disc length: 2564 seconds
#
# Revision: 2
# Processed by: cddbd v1.4PL0 Copyright (c) Steve Scherf et al.
# Submitted via: CDex 1.40Release
#
DISCID=a20a020e
DTITLE=Ella Fitzgerald - The Gold Collection
DYEAR=1900
DGENRE=
TTITLE0=Lover Come Back To Me
TTITLE1=Angel Eyes
TTITLE2=I'm Beginning To See The Light
TTITLE3=My Heart Belongs To Daddy
TTITLE4=Just One Of Those Things
TTITLE5=I Can't Give You Anything But Love
TTITLE6=Sophisticated Lady
TTITLE7=I'll Chase The Blues Away
TTITLE8=A-Tisket, A-Tasket
TTITLE9=Ella
TTITLE10=Undecided
TTITLE11=You'll Have To Swing It (Mr. Paganini)
TTITLE12=I Got It Bad And That Ain't Good
TTITLE13=Just A Simple Melody
EXTD=
EXTT0=
EXTT1=
EXTT2=
EXTT3=
EXTT4=
EXTT5=
EXTT6=
EXTT7=
EXTT8=
EXTT9=
EXTT10=
EXTT11=
EXTT12=
EXTT13=
PLAYORDER=
